<svg xmlns="http://www.w3.org/2000/svg"
shape-rendering="geometricPrecision"
width="4000" height="4000" viewBox="0 0 596 596">
  <metadata>null</metadata>

<path d="
M 27.871 505.073
C 27.965 504.85 28.06 504.626 28.155 504.403
C 29.881 504.585 30.714 506.046 31.644 507.379
C 33.333 509.803 35.258 512.075 36.971 514.486
C 37.507 515.241 38.815 517.743 39.723 517.905
C 40.156 516.711 39.768 514.803 39.74 513.507
C 39.679 510.621 39.704 507.727 39.796 504.843
C 40.26 504.629 41.258 504.307 41.62 504.888
C 42.137 505.72 41.706 508.022 41.685 508.984
C 41.618 512.158 41.828 515.306 41.815 518.478
C 41.81 519.51 42.333 522.078 41.126 522.449
C 39.735 522.462 38.776 520.143 38.08 519.109
C 35.778 515.694 33.206 511.318 30.025 508.663
C 28.743 512.747 30.172 517.988 29.757 522.248
C 29.22 522.228 28.69 522.133 28.152 522.106
C 27.412 520.753 27.833 518.504 27.831 516.992
C 27.825 513.135 27.356 508.884 27.871 505.073 Z"
opacity="1" fill="rgb(11,12,7)" fill-rule="evenodd" />
<path d="
M 44.334 513.515
C 45.305 511.182 47.307 509.237 49.978 509.259
C 53.019 509.285 56.274 513.366 55.832 516.371
C 52.786 516.175 48.919 515.81 45.957 516.6
C 46.835 519.183 48.538 521.294 51.621 520.484
C 52.739 520.191 53.786 519.041 54.999 519.635
C 55.551 521.391 51.775 522.355 50.498 522.394
C 45.818 522.537 43.069 517.762 44.334 513.515 Z
M 46.493 513.056
C 46.186 513.692 46.104 513.941 46.208 514.646
C 48.64 514.689 51.257 514.893 53.677 514.556
C 53.215 510.331 48.638 509.931 46.493 513.056 Z"
opacity="1" fill="rgb(4,2,2)" fill-rule="evenodd" />
<path d="
M 63.306 509.293
C 64.459 509.327 64.488 509.592 65.009 510.479
C 68.059 508.846 69.618 508.866 72.252 511.298
C 72.793 511.232 73.425 510.208 73.878 509.866
C 74.77 509.192 76.015 509.12 77.091 509.263
C 81.246 509.814 80.797 514.471 80.957 517.494
C 81.038 518.999 81.212 520.728 80.82 522.198
C 80.276 522.264 79.737 522.198 79.193 522.152
C 79.063 519.302 79.926 515.212 78.73 512.568
C 77.633 510.14 74.256 510.923 73.204 512.935
C 71.861 515.503 73.537 519.412 72.838 522.21
C 72.351 522.244 71.87 522.181 71.383 522.172
C 70.848 521.558 70.959 520.225 70.928 519.421
C 70.815 516.466 71.866 512.915 68.946 511.153
C 62.893 510.963 65.453 518.49 64.85 522.225
C 64.363 522.308 64.052 522.213 63.581 522.165
C 62.871 521.259 63.141 519.612 63.135 518.498
C 63.121 515.459 62.86 512.293 63.306 509.293 Z"
opacity="1" fill="rgb(4,3,1)" fill-rule="evenodd" />
<path d="
M 70.945 440.611
C 71.632 435.286 72.863 430.079 75.674 425.429
C 83.799 411.987 100.252 406.31 115.333 409.284
C 120.302 410.263 125.101 412.168 129.335 414.964
C 130.515 415.743 132.335 416.638 133.097 417.852
C 132.174 419.419 130.625 420.578 129.462 421.975
C 128.049 423.671 126.932 425.614 125.545 427.301
C 122.029 424.277 117.781 422.241 113.295 421.161
C 105.528 419.291 96.852 420.986 90.992 426.611
C 78.685 438.423 83.371 460.397 99.281 466.075
C 102.821 467.338 106.692 467.725 110.425 467.418
C 114.694 467.067 119.295 465.671 122.964 463.43
C 123.334 461.941 122.918 460.033 122.913 458.494
C 122.906 456.034 123.326 453.389 123.156 450.961
C 117.967 451.722 112.489 450.759 107.262 451.108
C 107.145 447.621 106.572 443.256 107.272 439.849
C 116.717 439.894 126.171 439.632 135.618 439.697
C 135.563 446.456 135.748 453.237 135.757 460.004
C 135.761 462.863 136.179 465.99 135.792 468.817
C 129.41 473.199 123 476.871 115.34 478.488
C 97.312 482.295 77.597 472.782 72.336 454.577
C 71.029 450.056 70.593 445.301 70.945 440.611 Z"
opacity="1" fill="rgb(23,62,128)" fill-rule="evenodd" />
<path d="
M 82.88 517.004
C 84.525 513.779 88.331 514.103 91.276 514.702
C 91.411 514.068 91.119 513.747 90.809 513.242
C 88.972 510.254 86.768 511.617 83.945 511.938
C 83.001 509.036 88.36 508.942 89.893 509.618
C 93.965 511.412 94.084 518.551 92.773 522.279
C 91.741 522.533 91.395 521.405 90.57 521.463
C 87.09 524.081 81.898 521.416 82.88 517.004 Z
M 84.92 517.542
C 84.036 520.93 89.013 521.625 90.644 519.228
C 91.251 518.336 91.001 517.311 90.908 516.335
C 88.691 515.525 86.346 515.345 84.92 517.542 Z"
opacity="0.996" fill="rgb(11,10,9)" fill-rule="evenodd" />
<path d="
M 95.941 510.052
C 96.064 509.906 96.187 509.76 96.31 509.614
C 97.109 509.477 97.225 509.721 97.589 510.395
C 98.187 510.7 99.072 509.865 99.634 509.575
C 100.489 509.134 101.684 509.051 102.613 509.246
C 107.709 510.316 106.35 518.553 105.752 522.246
C 105.286 522.386 104.972 522.259 104.505 522.235
C 103.157 519.331 105.454 515.214 103.822 512.376
C 102.472 510.029 99.228 511.212 98.104 513.166
C 97.624 514.001 97.804 515.302 97.814 516.223
C 97.833 518.155 97.458 520.26 97.685 522.17
C 97.169 522.303 96.408 522.254 95.956 522.005
C 95.527 518.297 95.41 513.748 95.941 510.052 Z"
opacity="1" fill="rgb(8,9,7)" fill-rule="evenodd" />
<path d="
M 107.995 515.101
C 108.692 511.859 110.779 508.718 114.491 509.351
C 115.376 509.502 116.976 511.137 117.677 510.853
C 118.218 510.18 118.31 509.494 119.263 509.324
C 119.938 510.095 119.619 512.029 119.633 512.986
C 119.68 516.247 119.45 519.435 119.611 522.694
C 119.655 523.576 119.817 525.929 119.261 526.546
C 118.743 526.638 118.268 526.46 117.765 526.334
C 117.092 524.956 117.4 523.316 117.568 521.848
C 117.614 521.441 117.765 520.593 117.237 520.875
C 116.209 521.477 115.169 522.193 113.942 522.267
C 110.021 522.506 107.763 518.625 107.995 515.101 Z
M 110.05 515.117
C 109.901 517.072 110.277 518.908 112.095 520.008
C 114.644 521.549 117.447 518.967 117.66 516.522
C 117.768 515.291 117.76 513.654 116.908 512.666
C 114.328 509.671 110.336 511.358 110.05 515.117 Z"
opacity="1" fill="rgb(6,3,2)" fill-rule="evenodd" />
<path d="
M 122.283 509.95
C 122.927 509.174 123.318 509.184 124.274 509.164
C 124.043 511.742 123.269 516.151 124.147 518.581
C 125.102 521.227 128.885 520.308 130.145 518.524
C 130.908 515.676 129.783 512.029 130.936 509.376
C 132.524 509.179 132.438 510.691 132.435 512.009
C 132.428 514.999 132.377 517.98 132.438 520.969
C 132.448 521.48 132.25 523.271 131.182 522.402
C 130.778 522.072 130.967 521.08 130.555 520.797
C 129.759 521.308 129.017 521.872 128.086 522.128
C 121.121 524.038 121.306 514.207 122.283 509.95 Z"
opacity="1" fill="rgb(5,3,3)" fill-rule="evenodd" />
<path d="
M 134.556 515.62
C 134.908 512.685 136.244 509.815 139.513 509.156
C 143.209 508.411 146.876 512.885 146.39 516.395
C 143.275 516.449 139.962 516.459 136.862 516.667
C 136.872 519.205 139.129 520.717 141.561 520.671
C 142.977 520.644 143.886 519.562 145.179 519.331
C 145.721 519.235 145.898 519.192 145.92 519.659
C 146.015 521.647 141.778 522.575 140.442 522.428
C 136.853 522.032 134.741 519.025 134.556 515.62 Z
M 136.912 513.552
C 136.817 514.026 136.69 514.304 136.986 514.707
C 139.332 514.877 141.976 514.43 144.257 514.815
C 144.499 513.283 142.438 510.996 140.954 510.837
C 139.122 510.641 137.653 512.042 136.912 513.552 Z"
opacity="0.996" fill="rgb(7,5,5)" fill-rule="evenodd" />
<path d="
M 144.917 448.598
C 146.018 442.458 148.713 436.687 153.535 432.566
C 162.341 425.042 176.754 424.269 185.537 432.335
C 192.342 438.585 194.533 448.541 193.313 457.415
C 190.066 458.337 185.56 457.436 182.172 457.468
C 173.825 457.548 165.47 457.615 157.127 457.642
C 158.901 469.638 176.9 472.757 184.243 463.928
C 184.86 463.881 185.442 464.771 185.883 465.178
C 187.141 466.34 188.299 467.605 189.529 468.796
C 189.913 469.168 190.858 469.824 190.927 470.334
C 189.116 472.994 185.796 475.112 182.933 476.459
C 173.825 480.745 161.153 479.664 153.368 473.008
C 146.32 466.981 143.611 457.634 144.917 448.598 Z
M 156.953 448.097
C 156.914 448.317 156.875 448.537 156.836 448.757
C 158.472 449.578 162.151 448.857 164.003 448.851
C 169.762 448.83 175.723 449.322 181.46 448.848
C 181.751 447.582 180.912 445.65 180.446 444.484
C 178.513 439.649 174.269 436.709 169 436.932
C 162.553 437.205 158.512 442.31 156.953 448.097 Z"
opacity="1" fill="rgb(21,60,127)" fill-rule="evenodd" />
<path d="
M 147.452 521.061
C 148.2 519.43 149.67 518.174 150.759 516.75
C 152.173 514.901 153.489 512.883 154.97 511.11
C 153.647 510.712 151.468 510.975 150.042 510.941
C 148.862 510.913 147.675 510.825 148.396 509.306
C 151.433 509.27 154.955 508.898 157.94 509.451
C 156.872 513.412 152.936 516.751 150.634 520.017
C 152.339 521.272 157.774 518.676 157.918 521.961
C 156.756 522.403 155.236 522.215 154.011 522.214
C 151.744 522.213 149.292 522.535 147.065 522.122
C 147.351 521.321 147.22 521.674 147.452 521.061 Z"
opacity="1" fill="rgb(5,5,4)" fill-rule="evenodd" />
<path d="
M 165.478 512.112
C 165.562 511.117 165.509 510.18 165.861 509.233
C 166.8 509.212 166.804 509.489 167.135 510.305
C 167.719 510.733 169.163 509.427 169.933 509.258
C 171.615 508.889 173.318 509.4 174.603 510.519
C 177.962 513.442 177.648 520.107 173.233 521.944
C 171.385 522.713 169.444 521.835 167.613 521.538
C 167.292 523.34 167.704 525.208 167.323 526.979
C 166.796 526.911 165.89 527.205 165.563 526.692
C 164.968 525.756 165.388 523.566 165.392 522.498
C 165.404 519.035 165.242 515.573 165.478 512.112 Z
M 167.48 514.09
C 167.187 515.561 167.149 517.621 168.097 518.884
C 170.15 521.62 174.043 520.419 174.664 517.244
C 175.054 515.253 174.582 512.531 172.757 511.351
C 170.778 510.072 167.903 511.973 167.48 514.09 Z"
opacity="1" fill="rgb(6,3,3)" fill-rule="evenodd" />
<path d="
M 178.987 504.605
C 179.012 504.286 179.036 503.967 179.061 503.647
C 179.227 503.653 180.473 503.571 180.736 503.845
C 181.325 504.459 181.102 506.641 181.099 507.487
C 181.087 510.991 180.965 514.492 180.978 518.001
C 180.982 519.187 181.318 521 180.758 522.082
C 180.194 522.241 179.674 522.111 179.094 522.12
C 178.901 516.428 178.307 510.27 178.987 504.605 Z"
opacity="1" fill="rgb(11,6,4)" fill-rule="evenodd" />
<path d="
M 183.965 510.099
C 184.067 509.833 184.168 509.567 184.27 509.301
C 186.123 509.653 185.869 510.616 185.84 512.327
C 185.799 514.629 184.871 519.231 187.601 520.289
C 189.144 520.535 190.713 520.041 191.965 519.135
C 193.027 517.417 192.321 513.706 192.33 511.698
C 192.332 511.284 192.233 509.539 192.658 509.281
C 192.895 509.137 193.908 509.23 194.195 509.247
C 194.292 512.326 194.439 515.4 194.318 518.485
C 194.273 519.654 194.576 521.188 193.948 522.214
C 192.672 522.597 192.625 522.014 191.948 521.15
C 190.17 521.501 189.083 522.83 187.065 522.315
C 183.311 521.357 183.939 516.857 183.89 513.943
C 183.868 512.662 183.756 511.37 183.965 510.099 Z"
opacity="0.996" fill="rgb(5,3,3)" fill-rule="evenodd" />
<path d="
M 196.294 519.982
C 197.048 519.624 196.851 519.523 197.432 519.69
C 199.034 520.15 205.694 521.773 203.368 517.706
C 201.542 516.387 199.193 515.979 197.282 514.736
C 195.185 510.984 199.34 508.693 202.564 509.361
C 203.687 509.594 205.228 510.433 204.958 511.812
C 202.894 511.746 200.639 509.653 198.901 511.94
C 198.357 513.628 199.554 513.986 200.862 514.525
C 202.89 515.36 206.494 516.472 205.677 519.456
C 204.861 522.438 201.446 522.928 198.897 522.061
C 197.726 521.662 196.615 521.259 196.294 519.982 Z"
opacity="1" fill="rgb(7,4,3)" fill-rule="evenodd" />
<path d="
M 199.392 176.083
C 200.385 172.213 202.964 168.845 206.673 167.239
C 212.121 164.879 219.287 167.761 222.182 172.741
C 225.536 178.508 223.024 185.245 221.951 191.285
C 220.927 197.042 221.095 202.845 220.53 208.632
C 220.287 211.125 220.385 213.677 220.297 216.182
C 220.261 217.196 220.364 218.604 219.697 219.435
C 218.956 218.06 219.346 215.132 219.13 213.539
C 218.641 209.928 217.616 206.178 216.065 202.877
C 214.46 199.462 212.291 196.216 209.622 193.532
C 204.539 188.419 197.579 184.511 199.392 176.083 Z
M 205.426 176.565
C 203.184 184.061 215.406 187.545 217.565 179.868
C 219.678 172.358 207.745 168.81 205.426 176.565 Z"
opacity="1" fill="rgb(236,113,35)" fill-rule="evenodd" />
<path d="
M 201.454 450.107
C 201.71 447.133 202.566 444.184 203.825 441.485
C 213.676 420.358 247.607 422.294 254.52 444.706
C 255.533 447.989 255.947 451.567 255.653 454.99
C 255.381 458.153 254.355 461.277 252.887 464.08
C 244.155 480.755 220.451 483.966 207.651 470.063
C 205.557 467.789 203.844 464.96 202.851 462.027
C 201.542 458.162 201.104 454.172 201.454 450.107 Z
M 213.935 451.619
C 212.943 464.021 227.269 472.896 237.472 464.926
C 238.985 463.744 240.159 462.206 241.061 460.521
C 242.121 458.54 242.687 456.292 242.849 454.059
C 243.205 449.175 241.334 443.984 237.518 440.801
C 230.603 435.033 219.655 437.081 215.749 445.326
C 214.814 447.298 214.11 449.426 213.935 451.619 Z"
opacity="1" fill="rgb(23,63,131)" fill-rule="evenodd" />
<path d="
M 203.361 148.057
C 205.443 140.489 216.454 143.976 214.182 151.46
C 212.083 158.374 201.525 154.729 203.361 148.057 Z"
opacity="1" fill="rgb(245,118,28)" fill-rule="evenodd" />
<path d="
M 212.434 118.105
C 213.396 112.086 216.043 106.499 221.353 103.123
C 231.393 96.739 245.901 100.952 250.328 112.211
C 253.707 120.805 250.384 128.401 247.283 136.42
C 244.754 142.96 242.586 149.56 241.435 156.498
C 240.564 161.754 239.955 171.036 246.132 173.521
C 251.472 175.669 255.959 170.49 257.514 166.004
C 258.99 161.745 258.941 157.037 258.068 152.645
C 256.881 146.679 255.025 140.919 258.732 135.396
C 265.028 126.019 280.054 129.569 282.777 140.042
C 285.32 149.826 277.192 155.266 271.281 161.467
C 265.533 167.496 260.834 174.329 256.15 181.188
C 251.934 187.362 247.741 193.558 243.925 199.993
C 235.982 213.386 229.687 228.57 227.851 244.121
C 227.263 249.107 226.739 254.424 227.54 259.415
C 227.821 261.166 228.04 262.929 228.337 264.677
C 228.463 265.415 228.865 266.737 228.511 267.436
C 228.479 266.464 227.765 265.381 227.525 264.418
C 226.767 261.387 225.738 258.451 225.238 255.352
C 223.627 245.361 223.806 235.509 224.901 225.483
C 227.086 205.494 236.166 185.992 233.558 165.561
C 232.544 157.621 229.741 149.842 225.085 143.303
C 219.49 135.446 211.539 128.665 212.434 118.105 Z
M 222.398 116.065
C 219.731 125.8 232.906 133.42 239.465 125.348
C 240.272 124.354 240.892 123.155 241.264 121.929
C 244.28 112 231.689 104.115 224.533 112.1
C 223.517 113.233 222.8 114.596 222.398 116.065 Z
M 263.452 140.564
C 260.778 148.779 273.707 153.224 276.381 144.941
C 278.97 136.922 266.208 132.096 263.452 140.564 Z"
opacity="1" fill="rgb(241,119,32)" fill-rule="evenodd" />
<path d="
M 213.41 509.365
C 213.796 509.344 214.81 509.143 215.039 509.644
C 216.378 512.586 213.319 517.689 216.383 520.06
C 216.833 520.409 217.511 520.39 218.047 520.365
C 221.53 520.2 221.633 517.025 221.621 514.307
C 221.614 512.646 221.663 511.028 221.813 509.375
C 221.986 509.372 223.374 509.226 223.475 509.401
C 223.952 510.227 223.494 511.581 223.452 512.456
C 223.334 514.892 223.259 517.452 223.403 519.886
C 223.431 520.355 223.782 521.92 223.313 522.251
C 223.105 522.398 222.51 522.314 222.278 522.331
C 222.001 521.798 221.763 521.245 221.515 520.698
C 220.646 521.206 219.926 521.996 218.921 522.246
C 211.906 523.992 212.583 513.572 213.41 509.365 Z"
opacity="1" fill="rgb(5,4,3)" fill-rule="evenodd" />
<path d="
M 226.354 509.361
C 227.851 509.076 227.595 509.655 228.34 510.581
C 229.42 510.07 230.383 509.298 231.611 509.203
C 238.018 508.708 237.424 518.025 236.738 522.231
C 236.184 522.366 235.693 522.279 235.128 522.284
C 234.457 519.317 236.045 515.047 234.552 512.377
C 234.007 511.955 233.525 511.482 232.886 511.185
C 231.37 510.479 229.034 511.892 228.506 513.406
C 227.559 516.125 228.897 519.42 228.25 522.201
C 227.707 522.325 227.275 522.266 226.726 522.27
C 225.985 521.232 226.206 519.715 226.224 518.486
C 226.267 515.535 225.784 512.246 226.354 509.361 Z"
opacity="1" fill="rgb(4,4,4)" fill-rule="evenodd" />
<path d="
M 264.77 265.068
C 264.262 264.468 263.644 265.247 263.505 265.831
C 263.122 267.432 263.12 269.235 263.053 270.874
C 262.8 277.044 262.691 283.273 263.723 289.387
C 265.848 301.97 269.826 313.189 275.188 324.711
C 277.068 328.75 278.769 333.815 282.103 336.919
C 284.248 339.259 285.078 342.712 286.104 345.605
C 286.544 346.845 287.517 347.687 288.092 348.836
C 288.392 349.435 288.064 349.732 287.479 349.511
C 283.016 343.162 277.37 337.295 272.39 331.324
C 251.561 306.346 228.546 274.66 237.25 240.252
C 238.834 233.993 241.111 228.074 244.45 222.525
C 251.824 210.274 262.604 201.023 274.725 193.695
C 292.659 182.852 313.387 175.895 334.22 173.455
C 343.524 172.366 354.107 171.254 363.207 174.109
C 366.427 175.119 371.31 177.08 371.719 181.036
C 372.155 185.257 367.218 187.53 363.921 188.579
C 358.747 190.224 353.204 190.882 347.885 191.905
C 343.138 192.818 338.47 194.032 333.805 195.292
C 309.048 201.975 283.613 216.727 271.572 240.297
C 267.903 247.477 263.258 256.926 264.77 265.068 Z"
opacity="1" fill="rgb(29,73,140)" fill-rule="evenodd" />
<path d="
M 244.343 519.964
C 244.481 519.851 244.619 519.737 244.757 519.623
C 247.272 520.029 249.189 521.586 251.461 519.774
C 251.694 519.075 251.515 518.56 251.186 517.907
C 249.508 516.226 246.74 516.271 245.034 514.418
C 243.365 510.669 247.551 508.425 250.676 509.635
C 251.073 509.789 253.497 511.189 252.518 511.723
C 250.693 511.756 249.028 510.54 247.175 511.332
C 246.59 512.019 246.261 512.571 246.457 513.502
C 248.392 515.755 252.846 514.499 253.347 518.387
C 253.416 518.919 253.371 519.344 253.286 519.864
C 252.122 523.169 245.168 523.601 244.343 519.964 Z"
opacity="0.996" fill="rgb(10,5,6)" fill-rule="evenodd" />
<path d="
M 254.952 514.078
C 255.696 511.813 257.266 509.628 259.778 509.262
C 263.334 508.743 267.241 512.788 266.368 516.359
C 264.043 516.314 261.613 516.316 259.283 516.401
C 258.574 516.427 257.303 516.314 256.858 516.92
C 257.654 519.453 259.842 521.497 262.757 520.58
C 263.378 520.385 265.482 518.67 266.025 519.379
C 266.332 519.783 265.791 520.398 265.531 520.617
C 264.57 521.427 263.352 522.193 262.09 522.4
C 257.177 523.209 254.223 518.408 254.952 514.078 Z
M 256.98 513.613
C 256.921 514.025 256.898 514.349 256.972 514.758
C 258.72 514.792 260.426 514.854 262.176 514.748
C 262.643 514.719 263.826 514.965 264.184 514.667
C 264.679 514.253 263.059 512.121 262.755 511.847
C 260.7 509.994 257.719 511.066 256.98 513.613 Z"
opacity="1" fill="rgb(8,5,5)" fill-rule="evenodd" />
<path d="
M 256.89 88.588
C 258.52 79.185 272.656 78.513 275.129 87.693
C 275.505 89.092 275.491 90.647 275.23 92.066
C 275.023 93.191 274.592 94.276 273.994 95.25
C 268.82 103.677 255.216 98.24 256.89 88.588 Z"
opacity="1" fill="rgb(243,121,35)" fill-rule="evenodd" />
<path d="
M 264.77 265.068
C 266.372 273.487 273.823 278.913 280.031 283.802
C 277.485 287.69 276.544 292.855 275.875 297.379
C 274.695 305.36 274.746 314.075 276.759 321.925
C 278.074 327.048 280.369 331.936 282.103 336.919
C 278.769 333.815 277.068 328.75 275.188 324.711
C 269.826 313.189 265.848 301.97 263.723 289.387
C 262.691 283.273 262.8 277.044 263.053 270.874
C 263.12 269.235 263.122 267.432 263.505 265.831
C 263.644 265.247 264.262 264.468 264.77 265.068 Z"
opacity="1" fill="rgb(21,52,109)" fill-rule="evenodd" />
<path d="
M 265.82 188.703
C 268.934 185.727 272.489 183.242 275.763 180.437
C 282.683 174.507 289.68 168.07 295.583 161.109
C 299.569 156.409 303.152 151.524 305.653 145.853
C 307.995 140.543 309.226 134.884 311.376 129.519
C 312.586 126.5 314.329 123.638 316.902 121.598
C 318.615 120.239 320.546 119.226 322.641 118.602
C 335.034 114.913 346.403 125.37 344.608 137.942
C 344.382 139.523 343.884 141.196 343.234 142.652
C 338.334 153.623 324.671 154.155 314.822 158.105
C 304.027 162.434 294.494 169.917 284.992 176.472
C 280.312 179.7 275.439 182.652 270.829 185.979
C 269.983 186.589 266.858 189.381 265.82 188.703 Z
M 320.435 132.066
C 320.104 133.219 320.122 134.507 320.242 135.691
C 321.163 144.868 334.543 145.598 336.803 136.793
C 338.955 128.411 328.006 121.599 322.2 128.773
C 321.419 129.738 320.78 130.864 320.435 132.066 Z"
opacity="1" fill="rgb(243,123,36)" fill-rule="evenodd" />
<path d="
M 269.502 409.866
C 272.782 410.497 276.654 409.903 279.997 409.919
C 284.082 409.939 289.016 410.68 293.004 409.789
C 299.672 409.802 306.341 409.784 313.009 409.808
C 314.51 409.813 316.012 409.829 317.513 409.823
C 317.993 409.822 319.015 409.602 319.247 410.05
C 319.554 412.801 319.35 415.725 319.346 418.495
C 319.345 419.311 319.652 420.891 319.344 421.606
C 306.202 422.293 292.92 421.687 279.764 421.721
C 279.988 426.81 279.998 432.111 279.749 437.197
C 283.477 437.773 287.725 437.236 291.506 437.229
C 299.411 437.213 307.319 437.219 315.223 437.12
C 316.074 440.633 315.247 444.828 315.345 448.42
C 307.629 448.008 299.694 448.251 291.968 448.445
C 288.077 448.543 283.728 448.014 279.912 448.757
C 279.655 454.487 279.854 460.269 279.899 466.003
C 282.914 465.749 286.053 466.049 289.088 466.057
C 294.969 466.075 300.849 466.015 306.73 466.027
C 309.688 466.034 312.645 465.966 315.603 465.951
C 316.929 465.945 318.582 465.751 319.861 466.094
C 319.804 469.961 319.784 473.856 319.871 477.725
C 307.286 477.263 294.599 477.733 282.003 477.72
C 277.19 477.716 271.993 478.29 267.224 477.739
C 267.824 462.037 267.269 446.219 267.29 430.504
C 267.296 426.004 267.305 421.504 267.307 417.003
C 267.308 414.823 266.871 412.104 267.472 410.007
C 268.149 409.942 268.822 409.873 269.502 409.866 Z"
opacity="1" fill="rgb(242,121,30)" fill-rule="evenodd" />
<path d="
M 268.391 510.052
C 268.973 509.111 269.125 509.305 270.122 509.13
C 270.513 512.092 269.201 516.556 270.716 519.186
C 272.036 521.479 275.238 520.446 276.58 518.693
C 277.077 518.044 276.961 516.722 276.984 515.959
C 277.048 513.833 277.118 511.717 277.208 509.599
C 277.791 509.249 278.354 509.266 279.021 509.408
C 278.871 512.753 278.863 516.133 278.872 519.484
C 278.875 520.871 279.466 522.451 277.718 522.452
C 277.15 522.12 276.993 521.547 276.591 521.034
C 275.568 521.603 274.625 522.225 273.457 522.443
C 267.22 523.606 267.672 513.779 268.391 510.052 Z"
opacity="1" fill="rgb(7,5,4)" fill-rule="evenodd" />
<path d="
M 269.502 409.866
C 277.335 409.782 285.171 409.778 293.004 409.789
C 289.016 410.68 284.082 409.939 279.997 409.919
C 276.654 409.903 272.782 410.497 269.502 409.866 Z"
opacity="1" fill="rgb(233,146,85)" fill-rule="evenodd" />
<path d="
M 280.031 283.802
C 282.656 285.461 285.823 286.603 288.801 287.448
C 308.372 293.007 328.425 279.969 331.795 259.978
C 333.872 247.652 328.93 236.76 320.416 228.154
C 319.175 226.574 320.565 225.752 321.696 224.758
C 323.778 222.927 326.328 221.521 329.003 220.767
C 334.515 219.214 341.762 219.216 346.774 222.347
C 348.364 223.34 349.378 224.989 350.932 226.034
C 352.111 228.671 353.793 231.104 354.967 233.779
C 357.843 240.326 359.515 247.667 359.879 254.803
C 360.977 276.347 350.393 295.494 338.118 312.436
C 325.711 329.56 312.261 345.825 298.43 361.813
C 297.633 361.604 296.26 359.388 295.644 358.702
C 292.972 355.724 289.795 352.76 287.479 349.511
C 288.064 349.732 288.392 349.435 288.092 348.836
C 287.517 347.687 286.544 346.845 286.104 345.605
C 285.078 342.712 284.248 339.259 282.103 336.919
C 280.369 331.936 278.074 327.048 276.759 321.925
C 274.746 314.075 274.695 305.36 275.875 297.379
C 276.544 292.855 277.485 287.69 280.031 283.802 Z"
opacity="1" fill="rgb(30,74,142)" fill-rule="evenodd" />
<path d="
M 281.487 521.13
C 281.769 516.925 281.585 512.696 281.593 508.486
C 281.595 507.491 281.053 504.667 281.826 503.91
C 282.174 503.569 283.263 503.683 283.684 503.667
C 284.291 507.629 283.695 512.21 283.707 516.237
C 283.712 518.044 284.12 520.528 283.514 522.241
C 282.905 522.227 282.306 522.212 281.699 522.163
C 281.469 521.479 281.537 521.824 281.487 521.13 Z"
opacity="1" fill="rgb(9,15,15)" fill-rule="evenodd" />
<path d="
M 289.597 150.185
C 290.872 146.994 291.244 143.084 291.97 139.712
C 294.096 129.83 295.539 119.651 294.609 109.522
C 294.043 103.352 292.37 97.147 292.181 90.964
C 292.088 87.923 292.653 84.904 293.872 82.109
C 299.41 69.409 316.595 65.873 326.089 76.411
C 327.868 78.385 329.21 80.73 330.095 83.232
C 330.919 85.562 331.26 88.211 331.108 90.676
C 330.466 101.047 322.284 106.084 315.005 111.971
C 309.617 116.33 304.888 121.208 301.077 127.006
C 297.491 132.459 294.178 138.714 292.107 144.911
C 291.606 146.411 290.926 147.843 290.398 149.332
C 290.26 149.721 290.055 150.935 289.492 150.938
C 289.553 150.503 289.518 150.754 289.597 150.185 Z
M 302.948 86.082
C 300.749 96.239 314.881 103.328 320.558 93.88
C 321.218 92.781 321.727 91.637 321.97 90.373
C 323.867 80.533 310.817 74.338 304.681 82.394
C 303.846 83.49 303.241 84.73 302.948 86.082 Z"
opacity="1" fill="rgb(241,121,36)" fill-rule="evenodd" />
<path d="
M 291.868 514.04
C 292.507 512.479 293.765 510.286 295.424 509.628
C 299.614 507.965 304.587 511.723 303.508 516.359
C 300.355 516.238 296.754 515.962 293.672 516.604
C 293.814 517.239 294.029 517.847 294.356 518.415
C 296.543 522.214 300.104 519.639 303.11 518.973
C 303.187 521.548 298.916 522.587 296.93 522.27
C 293.307 521.691 291.045 517.433 291.868 514.04 Z
M 293.943 513.569
C 293.72 514.129 293.803 513.837 293.7 514.447
C 294.15 514.851 295.143 514.794 295.766 514.799
C 297.626 514.814 299.863 514.948 301.682 514.554
C 301.083 510.056 295.907 510.384 293.943 513.569 Z"
opacity="0.996" fill="rgb(7,6,6)" fill-rule="evenodd" />
<path d="
M 295.922 507.632
C 296.495 506.377 297.631 504.731 298.927 504.149
C 299.675 504.211 300.746 504.285 300.448 505.296
C 299.681 506.363 298.084 507.187 297.012 507.932
C 296.714 508.138 296.02 508.4 295.75 508.13
C 295.807 507.964 295.865 507.798 295.922 507.632 Z"
opacity="0.996" fill="rgb(23,25,23)" fill-rule="evenodd" />
<path d="
M 338.073 210.427
C 337.902 210.787 336.115 210.299 335.759 210.285
C 333.856 210.214 331.727 210.647 329.882 211.086
C 325.016 212.244 319.865 214.6 315.58 217.163
C 314.259 217.953 311.365 219.337 310.69 220.735
C 310.434 221.266 310.666 221.561 310.473 222.037
C 308.595 221.424 306.8 220.575 304.884 220.061
C 303.817 219.775 302.035 219.746 301.199 219.057
C 302.721 217.513 304.859 216.43 306.686 215.27
C 311.7 212.086 317.032 209.634 322.527 207.412
C 324.878 206.461 328.032 204.446 330.561 204.341
C 333.054 206.335 335.785 208.204 338.073 210.427 Z"
opacity="1" fill="rgb(18,35,76)" fill-rule="evenodd" />
<path d="
M 304.361 508.967
C 305.716 509.143 306.081 510.063 306.71 511.161
C 307.724 512.933 308.336 514.919 309.15 516.786
C 309.418 517.399 309.611 518.442 310.042 518.906
C 310.741 518.481 310.883 517.564 311.138 516.859
C 311.869 514.837 313.237 509.315 315.644 509.316
C 315.922 510.341 315.01 511.548 314.684 512.488
C 313.817 514.991 312.795 517.498 311.804 519.957
C 311.574 520.528 310.913 522.929 310.212 522.728
C 309.278 522.293 308.645 520.889 308.223 520.001
C 307.067 517.566 306.412 514.957 305.376 512.482
C 304.952 511.471 304.089 510.075 304.361 508.967 Z"
opacity="1" fill="rgb(8,7,6)" fill-rule="evenodd" />
<path d="
M 338.073 210.427
C 341.489 213.073 344.259 216.684 346.907 220.061
C 348.326 221.872 350.127 223.85 350.932 226.034
C 349.378 224.989 348.364 223.34 346.774 222.347
C 341.762 219.216 334.515 219.214 329.003 220.767
C 326.328 221.521 323.778 222.927 321.696 224.758
C 320.565 225.752 319.175 226.574 320.416 228.154
C 317.482 225.416 313.899 223.977 310.473 222.037
C 310.666 221.561 310.434 221.266 310.69 220.735
C 311.365 219.337 314.259 217.953 315.58 217.163
C 319.865 214.6 325.016 212.244 329.882 211.086
C 331.727 210.647 333.856 210.214 335.759 210.285
C 336.115 210.299 337.902 210.787 338.073 210.427 Z"
opacity="1" fill="rgb(24,55,110)" fill-rule="evenodd" />
<path d="
M 316.476 515.1
C 316.968 512.878 317.759 510.786 319.964 509.718
C 324.125 507.703 328.76 512.006 327.934 516.384
C 325.083 516.163 321.283 515.881 318.523 516.616
C 318.277 517.473 318.698 518.407 319.294 519.042
C 321.679 521.584 324.346 520.17 327.144 519.349
C 328.063 521.185 324.212 522.281 322.998 522.322
C 319.037 522.454 316.163 518.886 316.476 515.1 Z
M 318.492 514.148
C 318.458 514.284 318.424 514.42 318.389 514.555
C 319.584 515.472 322.922 514.684 324.437 514.725
C 324.827 514.735 325.888 514.933 326.011 514.502
C 324.854 509.95 319.97 509.684 318.492 514.148 Z"
opacity="1" fill="rgb(7,5,6)" fill-rule="evenodd" />
<path d="
M 324.54 427.793
C 327.866 427.633 331.174 427.713 334.505 427.746
C 335.418 427.755 337.244 427.382 337.936 427.929
C 342.411 439.187 346.944 450.479 350.985 461.892
C 351.566 461.72 351.816 460.138 351.958 459.639
C 352.561 457.514 353.397 455.447 354.156 453.374
C 357.293 444.797 360.719 436.33 363.922 427.779
C 366.752 427.172 370.112 427.685 373.003 427.698
C 374.387 427.705 376.142 427.433 377.453 427.899
C 371.83 439.459 367.155 451.674 362.281 463.575
C 360.383 468.209 358.846 473.542 356.398 477.89
C 352.82 478.07 349.141 477.383 345.572 477.867
C 344.497 476.771 344.09 474.672 343.523 473.269
C 342.095 469.738 340.522 466.261 339.06 462.743
C 335.858 455.038 332.581 447.364 329.352 439.671
C 327.733 435.813 325.693 431.803 324.54 427.793 Z"
opacity="1" fill="rgb(240,120,32)" fill-rule="evenodd" />
<path d="
M 330.026 518.621
C 330.405 515.509 329.997 512.34 330.354 509.232
C 331.28 509.307 331.57 509.659 331.997 510.461
C 333.749 509.864 334.9 508.649 336.901 509.439
C 340.681 510.932 340.112 514.799 340.181 518.137
C 340.219 520.01 341.001 522.447 338.573 522.292
C 338.015 519.25 339.278 515.451 337.907 512.601
C 336.629 509.947 333.277 510.872 332.26 513.241
C 331.17 515.783 332.314 519.238 331.906 521.925
C 331.329 522.26 330.835 522.158 330.195 522.092
C 330.002 520.937 329.972 519.79 330.026 518.621 Z"
opacity="1" fill="rgb(1,2,0)" fill-rule="evenodd" />
<path d="
M 331.016 164.458
C 331.091 164.373 331.165 164.288 331.24 164.203
C 332.67 163.356 334.308 163.474 335.885 163.111
C 338.561 162.497 341.193 161.617 343.812 160.801
C 351.417 158.431 358.694 154.787 364.893 149.774
C 368.33 146.994 371.391 143.665 374.005 140.102
C 380.19 131.67 384.873 121.871 396.491 120.436
C 399.482 120.067 402.525 120.249 405.398 121.185
C 420.711 126.173 424.084 147.355 411.203 156.888
C 401.218 164.277 387.762 160.482 376.307 160.426
C 366.187 160.376 356.108 161.766 346.083 163.015
C 343.256 163.367 340.404 163.534 337.582 163.888
C 335.457 164.154 333.157 164.756 331.016 164.458 Z
M 389.931 138.085
C 389.677 139.439 389.742 140.875 390.025 142.219
C 392.247 152.78 407.767 152.296 409.78 141.837
C 411.743 131.636 397.705 124.555 391.71 133.822
C 390.894 135.084 390.209 136.598 389.931 138.085 Z"
opacity="1" fill="rgb(241,120,36)" fill-rule="evenodd" />
<path d="
M 342.431 515.085
C 342.921 512.42 344.55 509.712 347.454 509.213
C 350.835 508.632 354.8 513.046 354.228 516.378
C 352.25 517.103 349.11 516.346 347.005 516.359
C 346.212 516.365 344.771 516.227 344.377 516.968
C 344.993 519.638 347.378 521.24 350.165 520.604
C 351.367 520.33 352.455 519.311 353.722 519.44
C 354.071 521.884 349.757 522.577 348.051 522.417
C 344.236 522.059 342.106 518.691 342.431 515.085 Z
M 344.405 514.146
C 344.393 514.28 344.38 514.414 344.367 514.547
C 346.226 514.941 348.126 514.699 350.003 514.742
C 350.413 514.752 351.799 514.969 351.995 514.591
C 351.726 512.264 348.957 509.913 346.635 511.124
C 345.396 511.771 344.933 512.94 344.405 514.146 Z"
opacity="1" fill="rgb(6,5,5)" fill-rule="evenodd" />
<path d="
M 342.834 201.973
C 344.699 201.576 346.61 201.862 348.491 201.624
C 355.348 200.756 362.17 200.455 368.524 197.35
C 370.795 196.241 373.22 195.074 375.104 193.357
C 379.149 189.672 382.316 185.395 388.254 185.114
C 400.163 184.55 406.949 200.588 396.927 207.958
C 390.043 213.019 382.184 209.042 375.028 206.959
C 368.852 205.161 362.674 204.405 356.328 203.574
C 353.232 203.168 350.093 203.089 346.985 202.756
C 345.613 202.608 343.985 202.844 342.834 201.973 Z
M 383.465 197.093
C 382.445 204.962 394.874 206.816 395.915 198.946
C 396.787 192.361 388.281 187.907 384.497 194.197
C 383.962 195.087 383.599 196.06 383.465 197.093 Z"
opacity="1" fill="rgb(240,119,37)" fill-rule="evenodd" />
<path d="
M 355.967 126.114
C 356.064 117.427 369.091 117.495 369.059 126.03
C 369.055 127.126 368.877 128.254 368.349 129.225
C 365.162 135.082 355.891 132.998 355.967 126.114 Z"
opacity="1" fill="rgb(242,121,30)" fill-rule="evenodd" />
<path d="
M 356.434 510.108
C 356.431 509.297 356.695 509.18 357.457 509.006
C 357.895 509.343 358.007 509.914 358.121 510.449
C 358.555 510.749 360.733 508.922 361.472 508.88
C 363.397 508.77 364.425 510.259 365.61 511.477
C 367.157 510.512 367.478 508.941 369.72 509.021
C 374.309 509.183 373.956 515.443 373.9 518.594
C 373.88 519.689 374.187 521.162 373.805 522.187
C 373.322 522.288 373.012 522.243 372.537 522.187
C 371.912 521.351 372.152 520.124 372.141 519.113
C 372.118 516.884 372.635 513.667 371.176 511.774
C 369.631 509.769 366.565 511.372 366.055 513.438
C 365.582 515.355 365.9 517.856 365.938 519.832
C 365.952 520.515 366.173 521.601 365.787 522.194
C 365.243 522.196 364.792 522.255 364.279 522.056
C 364.078 518.138 365.762 513.299 362.037 510.885
C 357.673 510.698 358.329 516.038 358.356 518.981
C 358.368 520.31 358.829 523.107 356.486 521.953
C 355.982 518.156 356.075 513.917 356.434 510.108 Z"
opacity="1" fill="rgb(3,3,2)" fill-rule="evenodd" />
<path d="
M 361.538 112.075
C 366.314 108.729 369.17 103.336 369.739 97.504
C 370.286 91.892 369.151 85.498 373.093 80.854
C 379.209 73.651 391.339 78.058 392.152 87.227
C 392.963 96.369 384.751 99.453 378.048 102.93
C 375.63 104.185 373.277 105.566 370.961 106.999
C 368.769 108.356 366.557 109.718 364.401 111.13
C 363.458 111.748 362.394 112.725 361.197 112.569
C 361.311 112.404 361.424 112.24 361.538 112.075 Z
M 376.428 86.57
C 374.696 93.562 384.902 96.59 386.946 89.765
C 389.055 82.723 378.255 79.188 376.428 86.57 Z"
opacity="1" fill="rgb(237,114,32)" fill-rule="evenodd" />
<path d="
M 375.962 514.566
C 376.69 512.633 377.742 510.379 379.804 509.545
C 383.886 507.896 388.058 512.341 387.432 516.401
C 384.453 516.409 380.924 515.982 378.079 516.937
C 378.242 517.611 378.257 518.268 378.645 518.872
C 380.832 522.281 384.097 519.756 386.798 519.279
C 387.61 520.974 384.137 522.193 382.935 522.338
C 378.77 522.84 374.96 518.664 375.962 514.566 Z
M 378.441 513.059
C 378.241 513.606 378.156 514.009 378.143 514.591
C 380.548 514.921 382.973 515.007 385.395 514.734
C 385.759 513.344 383.817 511.228 382.555 510.922
C 380.869 510.514 379.23 511.661 378.441 513.059 Z"
opacity="0.996" fill="rgb(1,1,1)" fill-rule="evenodd" />
<path d="
M 380.399 449.09
C 381.317 445.42 382.077 441.776 384.025 438.462
C 389.026 429.95 398.768 425.442 408.529 426.752
C 420.3 428.333 428.028 438.311 428.854 449.819
C 428.997 451.821 429.713 455.88 428.854 457.709
C 416.92 457.601 404.913 457.25 392.989 457.713
C 392.59 458.5 393.334 459.968 393.715 460.729
C 394.92 463.133 396.579 465.264 398.861 466.722
C 405.605 471.031 413.946 468.659 419.589 463.762
C 421.428 464.887 423.006 466.747 424.574 468.215
C 425.09 468.699 426.131 469.258 426.446 469.852
C 417.569 480.818 399.871 481.956 389.014 473.136
C 382.076 467.499 378.914 457.826 380.399 449.09 Z
M 392.479 448.132
C 392.424 448.325 392.368 448.519 392.312 448.713
C 397.359 448.582 402.454 448.782 407.509 448.787
C 410.527 448.79 413.7 448.484 416.698 448.712
C 416.064 440.334 407.278 434.237 399.475 438.278
C 395.343 440.417 394.056 444.097 392.479 448.132 Z"
opacity="1" fill="rgb(236,116,32)" fill-rule="evenodd" />
<path d="
M 389.888 509.316
C 391.623 509.109 391.075 509.719 391.474 510.913
C 392.499 510.372 393.193 509.41 394.384 509.221
C 395.041 509.117 395.71 509.146 396.36 509.286
C 400.558 510.191 399.888 514.213 399.924 517.498
C 399.941 518.999 400.113 520.523 399.895 522.013
C 399.521 522.341 398.674 522.16 398.208 522.145
C 398.056 520.099 398.025 518.029 397.957 515.98
C 397.92 514.873 398.179 513.486 397.685 512.46
C 396.43 509.851 392.844 510.897 391.802 513.189
C 391.006 514.94 391.458 517.631 391.472 519.5
C 391.477 520.205 391.758 521.59 391.339 522.172
C 390.803 522.252 390.401 522.126 389.895 521.943
C 388.964 518.341 389.333 512.976 389.888 509.316 Z"
opacity="1" fill="rgb(3,2,1)" fill-rule="evenodd" />
<path d="
M 401.373 509.421
C 401.889 509.356 402.393 509.256 402.91 509.213
C 403.327 508.255 403.108 506.734 403.173 505.688
C 405.715 505.432 404.778 507.495 405.109 509.371
C 406.041 509.296 407.06 509.257 407.989 509.37
C 408.199 511.48 407.123 511.144 405.321 511.304
C 404.668 513.303 404.871 515.622 404.883 517.703
C 404.888 518.492 404.752 519.631 405.226 520.276
C 406.128 520.42 408.878 520.327 408.227 521.771
C 406.918 522.727 404.362 522.238 403.328 521.078
C 402.111 518.377 403.13 514.357 403.05 511.455
C 402.219 510.578 400.979 511.163 401.373 509.421 Z"
opacity="1" fill="rgb(2,1,2)" fill-rule="evenodd" />
<path d="
M 408.909 176.551
C 410.955 170.877 419.737 174.269 417.961 179.784
C 415.893 186.206 406.628 182.875 408.909 176.551 Z"
opacity="1" fill="rgb(243,126,42)" fill-rule="evenodd" />
<path d="
M 414.979 518.111
C 415.775 513.252 419.871 514.854 423.213 514.77
C 423.392 513.941 423.179 513.166 422.741 512.456
C 420.575 510.322 418.48 511.65 415.934 511.85
C 414.916 510.674 417.518 509.501 418.365 509.363
C 420.834 508.963 422.936 509.902 424.523 511.778
C 425.069 512.678 424.958 513.776 425.055 514.794
C 425.284 517.199 425.567 519.825 425.232 522.22
C 424.159 522.396 423.808 521.726 422.986 521.264
C 421.967 521.583 421.175 522.241 420.055 522.319
C 417.481 522.5 414.99 520.798 414.979 518.111 Z
M 416.913 518.062
C 416.899 518.612 416.886 518.953 417.155 519.433
C 419.227 521.345 425.166 520.534 423.124 516.835
C 421.295 514.938 417.759 515.513 416.913 518.062 Z"
opacity="0.996" fill="rgb(5,4,4)" fill-rule="evenodd" />
<path d="
M 427.902 510.575
C 428.204 509.733 428.526 508.702 429.719 509.217
C 429.546 511.169 429.716 513.163 429.625 515.125
C 429.568 516.33 429.301 517.511 429.721 518.671
C 430.874 521.86 434.551 520.191 435.938 518.2
C 436.674 515.473 436.49 512.133 436.424 509.332
C 437.419 509.229 438.033 509.439 438.137 510.48
C 438.455 513.369 437.91 516.446 437.888 519.359
C 437.878 520.793 438.545 522.214 436.76 522.291
C 436.602 521.916 436.4 520.805 436.021 520.754
C 434.867 521.321 434.15 522.16 432.791 522.36
C 426.583 523.274 427.388 514.362 427.902 510.575 Z"
opacity="1" fill="rgb(5,4,4)" fill-rule="evenodd" />
<path d="
M 439.181 427.754
C 442.306 427.71 445.438 427.758 448.566 427.792
C 449.356 427.8 451.312 427.445 451.858 427.97
C 452.039 430.114 452.089 432.381 451.946 434.53
C 453.046 434.047 453.924 432.072 454.845 431.197
C 457.007 429.143 459.66 427.636 462.587 426.994
C 465.206 426.42 467.897 426.359 470.546 426.709
C 472.384 426.952 474.247 427.487 475.921 428.289
C 487.938 434.043 485.722 448.992 485.725 460.002
C 485.726 462.835 485.723 465.668 485.725 468.502
C 485.726 471.32 485.151 474.998 485.818 477.726
C 482.883 477.768 479.944 477.692 477.009 477.683
C 475.691 477.679 474.048 477.975 472.783 477.656
C 473.223 470.499 472.757 463.178 472.744 456.005
C 472.737 452.059 473.241 447.447 471.674 443.716
C 468.56 436.304 457.512 436.558 453.459 442.85
C 451.359 446.11 451.782 450.477 451.776 454.19
C 451.763 462.056 451.771 469.929 451.87 477.792
C 447.648 477.607 443.355 477.992 439.148 477.635
C 439.599 469.294 439.174 460.859 439.197 452.506
C 439.219 444.291 439.718 435.953 439.181 427.754 Z"
opacity="1" fill="rgb(238,118,31)" fill-rule="evenodd" />
<path d="
M 439.966 509.955
C 440.499 509.642 441.072 509.498 441.597 509.189
C 441.716 508.445 441.436 505.57 442.332 505.35
C 442.737 505.251 443.168 505.382 443.583 505.349
C 443.838 506.646 443.76 507.959 443.638 509.268
C 444.772 509.408 445.94 509.483 447.074 509.307
C 447.125 509.858 447.186 510.313 446.779 510.75
C 445.774 511.023 444.765 510.966 443.759 511.296
C 443.8 514.098 443.271 517.343 444.007 520.066
C 444.75 520.751 445.858 520.695 446.809 520.848
C 447.588 522.833 443.697 522.281 442.885 521.576
C 441.065 519.997 441.78 516.124 441.729 513.996
C 441.709 513.116 441.593 511.985 441.835 511.145
C 441.672 510.83 440.418 510.693 440.027 510.562
C 440.007 510.359 439.987 510.157 439.966 509.955 Z"
opacity="1" fill="rgb(5,5,4)" fill-rule="evenodd" />
<path d="
M 448.01 515.615
C 448.163 513.268 449.586 510.379 451.933 509.549
C 456.022 508.103 460.794 511.566 460.594 515.969
C 460.21 524.4 447.459 524.113 448.01 515.615 Z
M 450.011 515.104
C 449.782 516.961 450.314 518.806 451.911 519.918
C 454.491 521.713 457.917 520.158 458.366 517.156
C 458.63 515.389 458.349 513.221 456.978 511.935
C 454.304 509.424 450.411 511.857 450.011 515.104 Z"
opacity="1" fill="rgb(1,0,0)" fill-rule="evenodd" />
<path d="
M 462.735 509.266
C 463.324 509.277 464.307 508.996 464.419 509.777
C 464.819 512.566 463.573 516.007 464.718 518.664
C 465.972 521.573 469.787 520.402 470.928 518.041
C 471.584 515.289 471.216 512.158 471.272 509.344
C 471.45 509.339 472.921 509.159 473.034 509.36
C 473.389 509.993 472.938 512.205 472.928 513.001
C 472.9 515.149 472.828 517.342 472.932 519.487
C 472.982 520.503 473.317 521.322 473.093 522.348
C 471.467 522.519 472.304 521.431 471.371 520.767
C 470.992 520.497 469.957 521.4 469.678 521.592
C 468.62 522.319 467.274 522.523 466.03 522.225
C 462.075 521.28 462.664 516.599 462.599 513.505
C 462.57 512.096 462.439 510.649 462.735 509.266 Z"
opacity="1" fill="rgb(2,0,1)" fill-rule="evenodd" />
<path d="
M 476 510.102
C 476.079 509.864 476.158 509.625 476.237 509.387
C 477.878 509.184 477.62 509.872 477.803 511.299
C 479.654 511.364 480.189 508.379 482.457 509.502
C 482.683 509.893 482.962 510.236 482.705 510.671
C 481.999 510.833 481.311 511.246 480.686 511.608
C 476.53 514.013 478.428 517.928 477.889 521.92
C 477.331 522.223 476.578 522.247 476.037 521.918
C 475.611 518.126 475.721 513.905 476 510.102 Z"
opacity="1" fill="rgb(3,3,3)" fill-rule="evenodd" />
<path d="
M 488.947 513.57
C 490.063 511.053 492.644 508.128 495.749 509.433
C 496.556 509.773 497.576 511.287 498.211 511.413
C 498.934 509.156 497.7 506.331 498.337 503.989
C 498.521 503.991 499.694 503.856 499.852 504.053
C 500.392 504.723 499.975 506.944 499.969 507.763
C 499.946 511.197 500.317 514.642 499.978 518.061
C 499.872 519.127 500.413 521.168 499.834 522.034
C 499.441 522.196 499.114 522.154 498.69 522.171
C 498.59 521.864 498.305 520.897 498.004 520.79
C 496.597 521.512 495.692 522.456 493.951 522.33
C 489.764 522.029 487.834 517.193 488.947 513.57 Z
M 490.894 514.058
C 490.428 515.978 490.658 518.397 492.241 519.749
C 493.807 521.087 497.364 520.311 498.045 518.239
C 498.644 516.416 498.396 513.383 496.947 512.042
C 494.859 510.109 491.558 511.32 490.894 514.058 Z"
opacity="1" fill="rgb(6,3,3)" fill-rule="evenodd" />
<path d="
M 494.094 427.673
C 496.344 427.421 498.596 427.535 500.852 427.369
C 500.674 422.955 501.344 418.338 500.838 413.961
C 503.019 413.669 505.31 413.928 507.51 413.929
C 509.465 413.93 511.532 413.672 513.469 413.897
C 513.324 418.342 513.435 422.829 513.491 427.275
C 514.556 427.605 515.883 427.416 517.006 427.437
C 520.057 427.497 523.137 427.248 526.18 427.378
C 526.51 428.256 526.245 429.517 526.242 430.45
C 526.235 432.999 526.106 435.611 526.284 438.151
C 522.108 438.146 517.929 438.14 513.754 438.194
C 514.163 444.736 513.736 451.443 513.728 458.001
C 513.724 460.875 513.311 464.486 515.847 466.487
C 518.725 468.758 522.824 466.844 525.721 465.662
C 525.907 468.833 526.387 472.712 526.037 475.845
C 523.806 477.164 521.62 477.869 519.113 478.433
C 512.448 479.931 504.151 476.877 501.941 469.959
C 500.737 466.187 501.108 461.915 501.103 458.001
C 501.095 451.379 501.034 444.74 501.142 438.121
C 498.829 438.184 496.514 438.11 494.204 438.165
C 494.303 434.701 494.285 431.133 494.094 427.673 Z"
opacity="1" fill="rgb(237,117,31)" fill-rule="evenodd" />
<path d="
M 502.448 514.064
C 503.262 512.235 504.266 510.095 506.374 509.473
C 510.061 508.387 514.734 511.836 513.802 515.881
C 510.851 517.089 507.311 516.107 504.213 516.572
C 504.054 519.44 507.766 521.134 510.177 520.586
C 511.191 520.355 512.197 519.507 513.231 519.777
C 513.344 522.028 509.193 522.509 507.534 522.251
C 503.713 521.659 501.615 517.676 502.448 514.064 Z
M 504.427 513.578
C 504.323 514.044 504.297 514.323 504.473 514.77
C 507.104 514.97 509.676 514.736 512.307 514.787
C 512.44 512.464 509.493 510.484 507.418 510.894
C 506.011 511.172 505.057 512.391 504.427 513.578 Z"
opacity="1" fill="rgb(4,4,5)" fill-rule="evenodd" />
<path d="
M 521.058 509.361
C 522.307 509.545 522.579 510.865 523.054 511.901
C 524.113 514.207 525.37 516.549 526.022 519.002
C 526.868 518.874 526.954 517.551 527.162 516.871
C 527.789 514.818 528.812 512.792 529.74 510.86
C 530.193 509.914 530.387 509.009 531.595 509.367
C 531.541 512.662 529.223 516.542 527.975 519.551
C 527.533 520.617 527.275 522.313 525.931 522.481
C 524.918 521.253 524.55 519.623 523.966 518.171
C 522.804 515.283 521.435 512.547 520.41 509.606
C 520.626 509.524 520.842 509.443 521.058 509.361 Z"
opacity="1" fill="rgb(3,2,2)" fill-rule="evenodd" />
<path d="
M 532.5 515.612
C 532.528 511.771 536.285 508.465 540.107 509.527
C 542.985 510.326 544.651 513.288 544.61 516.134
C 544.543 520.836 539.3 523.977 535.207 521.253
C 533.305 519.987 532.485 517.822 532.5 515.612 Z
M 534.465 514.6
C 534.146 516.633 534.52 518.63 536.3 519.862
C 538.756 521.562 542.221 519.941 542.631 517.042
C 542.868 515.363 542.448 513.024 541.014 511.926
C 538.574 510.056 534.932 511.619 534.465 514.6 Z"
opacity="1" fill="rgb(2,0,0)" fill-rule="evenodd" />
<path d="
M 546.953 510.061
C 547.053 509.852 547.153 509.643 547.252 509.434
C 549.017 509.463 548.579 510.578 548.593 512.086
C 548.613 514.374 547.862 517.65 549.226 519.634
C 550.81 521.016 553.894 520.978 554.71 518.641
C 555.589 516.125 555.127 512.201 555.226 509.52
C 555.718 509.3 556.417 509.364 556.858 509.67
C 557.079 512.77 557.405 516.451 556.966 519.482
C 556.855 520.246 557.395 521.64 556.744 522.268
C 555.947 523.036 555.209 521.55 554.973 521.088
C 553.574 521.563 552.513 522.511 550.923 522.439
C 545.399 522.19 546.26 513.893 546.953 510.061 Z"
opacity="1" fill="rgb(4,2,2)" fill-rule="evenodd" />
<path d="
M 558.957 520.094
C 558.998 519.904 559.039 519.714 559.08 519.523
C 559.734 519.396 560.121 519.54 560.713 519.803
C 561.957 520.356 563.538 520.876 564.905 520.537
C 566.554 520.127 566.737 518.676 565.744 517.498
C 563.448 516.013 557.934 515.67 559.524 511.457
C 560.549 508.74 564.339 508.783 566.498 509.905
C 566.948 510.139 568.35 511.31 567.613 511.857
C 565.553 511.815 563.021 509.522 561.349 511.842
C 561.299 512.646 561.36 513.166 561.925 513.761
C 563.289 514.602 565.037 514.654 566.461 515.407
C 569.055 516.778 568.873 520.05 566.678 521.69
C 565.316 522.707 563.446 522.449 561.905 522.099
C 560.838 521.856 558.938 521.353 558.957 520.094 Z"
opacity="1" fill="rgb(6,2,2)" fill-rule="evenodd" />

</svg>